<svg t="1782123125056" class="icon" viewBox="0 0 1024 1024" version="1.1" xmlns="http://www.w3.org/2000/svg" p-id="5113"
     width="200" height="200">
  <path
    d="M947.424 854.464c21.824 0 30.176 8.256 30.176 29.568s-8.352 29.568-30.176 29.568H76.576c-21.824 0-30.176-8.256-30.176-29.568s8.352-29.568 30.176-29.568h870.848zM110.144 617.696v50.304l-19.456 44.544-1.376 2.528a20 20 0 0 1-16.96 9.12h-22.528v-106.496h60.32z m189.28-317.888c27.712 0 50.912 8.704 70.368 26.304 19.104 17.28 28.384 37.568 28.384 61.76v248.32c0 24.16-9.28 44.448-28.384 61.76-19.424 17.568-42.656 26.24-70.368 26.24-27.712 0-50.912-8.672-70.368-26.24-19.104-17.312-28.384-37.632-28.384-61.824v-248.32c0-24.128 9.28-44.416 28.384-61.696 19.456-17.6 42.688-26.304 70.4-26.304z m288 0c27.712 0 50.912 8.704 70.368 26.304 19.104 17.28 28.384 37.568 28.384 61.76v248.32c0 24.16-9.28 44.448-28.384 61.76-19.424 17.568-42.656 26.24-70.368 26.24-27.712 0-50.912-8.672-70.368-26.24-19.104-17.312-28.384-37.632-28.384-61.824v-248.32c0-24.128 9.28-44.416 28.384-61.696 19.456-17.6 42.688-26.304 70.4-26.304z m288 0c27.712 0 50.912 8.704 70.368 26.304 19.104 17.28 28.384 37.568 28.384 61.76v248.32c0 24.16-9.28 44.448-28.384 61.76-19.424 17.568-42.656 26.24-70.368 26.24-27.712 0-50.912-8.672-70.368-26.24-19.104-17.312-28.384-37.632-28.384-61.824v-248.32c0-24.128 9.28-44.416 28.384-61.696 19.456-17.6 42.688-26.304 70.4-26.304z m-576 51.872c-10.144 0-19.264 3.424-26.624 10.112-7.68 6.976-11.776 15.968-11.776 26.08v248.32c0 10.144 4.16 19.136 11.84 26.048 7.296 6.656 16.416 10.08 26.56 10.08 10.176 0 19.264-3.424 26.624-10.112 7.68-6.88 11.776-15.904 11.776-26.08V387.84c0-10.112-4.096-19.104-11.776-26.08a38.656 38.656 0 0 0-26.624-10.112z m288 0c-10.144 0-19.264 3.424-26.624 10.112-7.68 6.976-11.776 15.968-11.776 26.08v248.32c0 10.144 4.16 19.136 11.84 26.048 7.296 6.656 16.416 10.08 26.56 10.08 10.176 0 19.264-3.424 26.624-10.112 7.68-6.88 11.776-15.904 11.776-26.08V387.84c0-10.112-4.096-19.104-11.776-26.08a38.656 38.656 0 0 0-26.624-10.112z m288 0c-10.144 0-19.264 3.424-26.624 10.112-7.68 6.976-11.776 15.968-11.776 26.08v248.32c0 10.144 4.16 19.136 11.84 26.048 7.296 6.656 16.416 10.08 26.56 10.08 10.176 0 19.264-3.424 26.624-10.112 7.68-6.88 11.776-15.904 11.776-26.08V387.84c0-10.112-4.096-19.104-11.776-26.08a38.656 38.656 0 0 0-26.624-10.112z m72-241.28c21.824 0 30.176 8.256 30.176 29.568s-8.352 29.568-30.176 29.568H76.576c-21.824 0-30.176-8.256-30.176-29.568s8.352-29.568 30.176-29.568h870.848z"
    fill="currentColor"/>
</svg>
